<svg height="128" viewBox="0 0 128 128" width="128" xmlns="http://www.w3.org/2000/svg"><g fill="none" fill-rule="evenodd" transform="translate(11 6)"><rect fill="#f00" height="49.461809" rx="7" width="84.77979" x="10.104862" y="55.429593"/><path d="m45.9771211 70.5007782 20.5128694 9.2263376-20.4185587 10.2776763z" fill="#fff"/><g fill="#000"><path d="m14.0048615 3.31776611c4.970569 18.33204799 5.7134342 25.07188319 3.3829501 38.30450449-22.51355326-9.3023733-21.12750069 2.8761678-7.1418506 13.4830068 18.3994234 13.954657 67.1127117 13.953859 85.5113388-.0001992 13.9854512-10.6068401 15.3715042-22.7855804-7.1418505-13.4832061-1.4175972-13.3191476-.8555142-19.3932176 3.382751-38.30450451-26.3097103-4.32601777-51.6840277-4.32581851-77.9933388.00039852z" transform="translate(0 .083427)"/><path d="m75.1801716 1.0405174c-6.7856029 6.06370482-13.7866217 8.32413917-21.2184725 2.15279461-5.4572044-3.98267004-10.9144089-4.1979495-16.3716133-.64583838-5.4572044-3.55211112-10.9144089-3.30095175-16.3716133.64583838-7.3959481 6.13546465-14.39696696 3.8750303-21.2184725-2.15279461 6.89331086 23.2501818 21.3261805 21.6355859 37.5900858 13.993165 16.2280027 7.6424209 30.6608723 9.2570168 37.5900858-13.993165z" transform="translate(15.35939 94.776512)"/></g></g></svg>